<svg width="1171" height="159" viewBox="0 0 1171 159" fill="context-fill" fill-opacity="context-fill-opacity" xmlns="http://www.w3.org/2000/svg">
<path d="M116.108 0.46599C116.697 1.35 117.213 2.234 117.655 3.118C118.097 4.00199 118.613 4.95966 119.202 5.991C102.701 29.7117 86.273 53.2113 69.919 76.49C53.565 99.6213 37.1373 122.974 20.636 146.547H71.687C77.1383 146.547 82.1477 145.589 86.715 143.674C91.2823 141.611 95.7023 138.37 99.975 133.95C103.953 129.825 108.226 123.268 112.793 114.281C113.677 114.576 114.487 114.944 115.224 115.386C116.108 115.828 116.992 116.196 117.876 116.491C115.371 122.826 112.867 129.235 110.362 135.718C108.005 142.053 105.574 148.315 103.069 154.503H4.061L0.746 150.525C17.2473 126.657 33.7487 103.01 50.25 79.584C66.7513 56.0107 83.2527 32.29 99.754 8.42199H56.217C50.6183 8.42199 45.609 9.15866 41.189 10.632C36.769 12.1053 32.791 14.0943 29.255 16.599C26.3083 18.6617 23.3617 21.6083 20.415 25.439C17.4683 29.2697 14.5217 34.1317 11.575 40.025C10.8383 39.7303 10.028 39.4357 9.144 39.141C8.26 38.699 7.44967 38.3307 6.713 38.036C8.77567 31.7007 10.912 25.439 13.122 19.251C15.332 12.9157 17.4683 6.65399 19.531 0.46599H116.108ZM218.633 127.983C219.37 128.572 220.106 129.162 220.843 129.751C221.727 130.34 222.537 130.93 223.274 131.519C219.738 136.823 215.834 141.243 211.561 144.779C207.288 148.315 202.721 151.262 197.859 153.619C191.229 156.86 184.083 158.481 176.422 158.481C161.836 158.481 149.902 153.84 140.62 144.558C130.749 134.687 125.813 121.353 125.813 104.557C125.813 88.3503 130.528 75.3113 139.957 65.44C149.239 55.274 161.026 50.191 175.317 50.191C189.608 50.191 200.879 54.3163 209.13 62.567C217.97 70.965 222.39 83.12 222.39 99.032C208.688 99.474 195.207 99.9897 181.947 100.579C168.687 101.021 155.132 101.463 141.283 101.905C141.283 102.494 141.209 103.084 141.062 103.673C141.062 104.115 141.062 104.631 141.062 105.22C141.062 111.408 141.872 117.007 143.493 122.016C145.261 127.025 147.766 131.519 151.007 135.497C157.784 144.337 167.287 148.757 179.516 148.757C185.999 148.757 192.776 147.063 199.848 143.674C203.089 141.759 206.257 139.549 209.351 137.044C212.592 134.392 215.686 131.372 218.633 127.983ZM141.725 93.507C152.775 93.2123 163.678 92.844 174.433 92.402C185.188 91.96 196.091 91.5917 207.141 91.297C206.994 81.573 203.973 73.7643 198.08 67.871C192.039 61.3883 184.452 58.147 175.317 58.147C166.477 58.147 158.742 61.683 152.112 68.755C145.924 75.2377 142.462 83.4883 141.725 93.507ZM336.915 154.503H293.82V147.431C298.976 147.431 302.586 146.768 304.649 145.442C307.153 143.821 308.406 140.654 308.406 135.939V80.468C308.406 68.092 302.586 61.904 290.947 61.904C284.022 61.904 278.202 63.0827 273.488 65.44C271.425 66.4713 268.994 67.871 266.195 69.639C263.395 71.2597 260.301 73.2487 256.913 75.606V135.939C256.913 140.359 257.87 143.306 259.786 144.779C260.964 145.516 262.585 146.105 264.648 146.547C266.71 147.136 269.215 147.431 272.162 147.431V154.503H229.067V147.431C234.665 147.431 238.717 146.547 241.222 144.779C242.695 143.306 243.432 140.359 243.432 135.939V74.943C243.432 70.965 242.695 68.4603 241.222 67.429C239.159 65.8083 235.402 64.998 229.951 64.998C229.656 64.2613 229.435 63.451 229.288 62.567C229.288 61.683 229.14 60.8727 228.846 60.136C233.56 58.5153 238.201 56.8947 242.769 55.274C247.483 53.6533 252.198 52.0327 256.913 50.412V66.103C269.436 55.7897 282.18 50.633 295.146 50.633C304.133 50.633 310.837 53.2113 315.257 58.368C319.677 63.672 321.887 71.186 321.887 80.91V135.718C321.887 140.285 322.771 143.306 324.539 144.779C325.717 145.516 327.338 146.105 329.401 146.547C331.463 147.136 333.968 147.431 336.915 147.431V154.503ZM528.884 111.408C528.884 125.257 523.801 136.013 513.635 143.674C504.206 150.893 491.462 154.503 475.402 154.503H399.157V146.989C407.113 146.989 412.344 146.179 414.848 144.558C417.5 142.201 418.826 138.886 418.826 134.613V21.24C418.826 19.3247 418.532 17.8513 417.942 16.82C417.353 14.9047 416.469 13.284 415.29 11.958C412.196 9.306 406.819 7.98 399.157 7.98V0.46599H471.645C488.441 0.46599 501.038 3.55999 509.436 9.74799C517.982 16.0833 522.254 25.2917 522.254 37.373C522.254 44.887 519.455 51.8853 513.856 58.368C511.352 61.1673 508.479 63.672 505.237 65.882C502.143 67.9447 498.681 69.7127 494.85 71.186C503.985 73.838 511.278 77.6687 516.729 82.678C524.833 89.8973 528.884 99.474 528.884 111.408ZM507.005 37.152C507.005 32.732 506.121 28.6803 504.353 24.997C502.733 21.3137 500.449 18.2197 497.502 15.715C494.556 13.2103 490.946 11.3687 486.673 10.19C482.401 9.01133 477.76 8.42199 472.75 8.42199H448.882C445.052 8.42199 441.958 8.86399 439.6 9.74799C435.18 11.8107 432.97 15.5677 432.97 21.019V68.313H472.971C475.771 68.313 478.496 68.092 481.148 67.65C486.6 66.6187 491.609 64.114 496.176 60.136C503.396 54.2427 507.005 46.5813 507.005 37.152ZM513.635 111.408C513.635 101.537 510.247 93.286 503.469 86.656C496.397 80.026 487.336 76.711 476.286 76.711H432.97V134.392C432.97 140.138 435.107 143.821 439.379 145.442C441.589 146.179 444.757 146.547 448.882 146.547H474.96C486.158 146.547 495.292 143.674 502.364 137.928C509.878 131.593 513.635 122.753 513.635 111.408ZM619.833 60.136C619.833 67.7973 616.444 71.628 609.667 71.628C606.867 71.628 603.773 70.3757 600.385 67.871C597.88 65.8083 595.154 64.777 592.208 64.777C588.377 64.777 583.589 66.987 577.843 71.407C573.275 74.943 568.855 78.9947 564.583 83.562V137.044C564.583 141.169 565.319 143.895 566.793 145.221C568.413 146.694 572.465 147.431 578.948 147.431V154.503H536.958V147.431C540.788 147.431 543.735 147.136 545.798 146.547C547.86 145.958 549.26 145.074 549.997 143.895C550.733 142.716 551.102 140.875 551.102 138.37V73.838C551.102 70.8913 550.586 68.9023 549.555 67.871C548.965 67.2817 547.713 66.6187 545.798 65.882C543.735 65.44 541.23 65.219 538.284 65.219C537.989 64.4823 537.768 63.7457 537.621 63.009C537.473 62.2723 537.252 61.5357 536.958 60.799C541.672 58.8837 546.313 57.042 550.881 55.274C555.448 53.3587 560.015 51.4433 564.583 49.528V72.291C568.119 68.9023 571.655 65.8083 575.191 63.009C578.727 60.2097 582.189 57.8523 585.578 55.937C592.944 51.6643 600.09 49.528 607.015 49.528C615.56 49.528 619.833 53.064 619.833 60.136ZM722.606 104.336C722.606 120.837 717.892 134.024 708.462 143.895C699.475 153.766 687.983 158.702 673.986 158.702C659.842 158.702 648.277 153.766 639.289 143.895C629.86 134.024 625.145 120.837 625.145 104.336C625.145 87.8347 629.86 74.6483 639.289 64.777C648.277 54.9057 659.842 49.97 673.986 49.97C687.983 49.97 699.475 54.9057 708.462 64.777C717.892 74.6483 722.606 87.8347 722.606 104.336ZM707.578 104.336C707.578 90.7813 704.337 79.6577 697.854 70.965C691.814 62.2723 683.858 57.926 673.986 57.926C664.262 57.926 656.159 62.2723 649.676 70.965C643.341 79.6577 640.173 90.7813 640.173 104.336C640.173 117.743 643.267 128.867 649.455 137.707C655.791 146.252 663.968 150.525 673.986 150.525C683.563 150.525 691.519 146.252 697.854 137.707C704.337 129.014 707.578 117.891 707.578 104.336ZM833.574 157.597C829.154 146.547 824.66 135.423 820.093 124.226C815.673 113.029 811.253 101.831 806.833 90.634C802.56 101.831 798.288 113.029 794.015 124.226C789.742 135.423 785.47 146.547 781.197 157.597H776.335C770.442 142.422 764.548 127.467 758.655 112.734C752.909 97.8533 747.089 82.8253 741.196 67.65C740.165 64.4087 738.691 62.2723 736.776 61.241C734.271 59.915 730.588 59.252 725.726 59.252V52.18H769.484V59.252C763.591 59.252 759.613 59.6203 757.55 60.357C755.635 60.9463 754.677 61.8303 754.677 63.009C754.677 63.5983 754.898 64.335 755.34 65.219C756.077 66.6923 756.666 68.1657 757.108 69.639C757.697 70.965 758.36 72.3647 759.097 73.838C762.928 83.7093 766.685 93.507 770.368 103.231C774.051 112.808 777.735 122.532 781.418 132.403C784.954 123.121 788.416 114.134 791.805 105.441C795.194 96.601 798.656 87.54 802.192 78.258C801.455 76.6373 800.719 75.0167 799.982 73.396C799.393 71.7753 798.73 70.1547 797.993 68.534C796.52 64.4087 794.825 61.8303 792.91 60.799C791.289 59.915 788.195 59.473 783.628 59.473V52.18H826.723V59.252C818.914 59.252 813.979 60.0623 811.916 61.683C811.179 62.4197 810.811 63.23 810.811 64.114C810.811 64.2613 810.958 64.9243 811.253 66.103L838.436 133.729C842.414 122.532 846.318 111.334 850.149 100.137C854.127 88.9397 858.105 77.7423 862.083 66.545C862.378 65.3663 862.525 64.6297 862.525 64.335C862.525 63.451 862.23 62.6407 861.641 61.904C860.02 60.136 855.6 59.252 848.381 59.252V52.18H886.614V59.252C880.721 59.252 876.669 59.915 874.459 61.241C872.838 62.2723 871.439 64.2613 870.26 67.208C865.103 82.3833 859.873 97.485 854.569 112.513C849.412 127.394 844.256 142.422 839.099 157.597H833.574ZM975.719 129.088C975.719 135.129 974.024 140.506 970.636 145.221C969.899 145.958 969.162 146.694 968.426 147.431C967.836 148.168 967.173 148.904 966.437 149.641C959.807 155.387 950.819 158.26 939.475 158.26C931.666 158.26 924.889 157.008 919.143 154.503C918.406 154.208 917.669 153.987 916.933 153.84C916.343 153.84 915.68 153.84 914.944 153.84H912.734C911.113 154.577 909.566 155.166 908.093 155.608C906.619 156.197 905.072 156.787 903.452 157.376C901.389 151.777 899.253 146.326 897.043 141.022C894.833 135.571 892.696 130.046 890.634 124.447C891.223 124.005 891.739 123.563 892.181 123.121C892.77 122.679 893.433 122.311 894.17 122.016C900.505 130.856 906.546 137.339 912.292 141.464C921.426 147.357 930.414 150.304 939.254 150.304C946.178 150.304 951.998 148.168 956.713 143.895C960.543 140.064 962.459 135.423 962.459 129.972C962.459 126.436 961.059 123.268 958.26 120.469C957.67 120.027 956.934 119.511 956.05 118.922C955.166 118.333 954.134 117.67 952.956 116.933C951.04 115.754 948.536 114.576 945.442 113.397C942.348 112.071 938.591 110.671 934.171 109.198C927.246 106.841 921.5 104.704 916.933 102.789C912.365 100.726 908.903 98.7373 906.546 96.822C897.706 91.3707 893.286 84.1513 893.286 75.164C893.286 66.9133 897.19 60.357 904.999 55.495C910.892 51.8117 918.259 49.97 927.099 49.97C934.76 49.97 942.642 51.4433 950.746 54.39C951.924 54.0953 953.177 53.5797 954.503 52.843C955.829 51.959 957.302 50.9277 958.923 49.749C960.985 55.053 963.048 60.4307 965.111 65.882C967.173 71.186 969.236 76.5637 971.299 82.015C970.562 82.3097 969.825 82.678 969.089 83.12C968.499 83.562 967.836 83.9303 967.1 84.225C963.416 77.153 958.481 71.407 952.293 66.987C943.158 60.9463 934.76 57.926 927.099 57.926C921.5 57.926 917.08 58.8837 913.839 60.799C908.977 63.451 906.546 68.0183 906.546 74.501C906.546 78.6263 908.682 82.1623 912.955 85.109C913.544 85.4037 914.133 85.6983 914.723 85.993C915.312 86.2877 915.975 86.5823 916.712 86.877C918.774 88.0557 921.353 89.308 924.447 90.634C927.541 91.96 931.003 93.2123 934.834 94.391C942.79 96.8957 949.346 99.4003 954.503 101.905C959.807 104.262 963.858 106.472 966.658 108.535C972.698 113.397 975.719 120.248 975.719 129.088ZM1076.77 127.983C1077.51 128.572 1078.24 129.162 1078.98 129.751C1079.86 130.34 1080.67 130.93 1081.41 131.519C1077.87 136.823 1073.97 141.243 1069.7 144.779C1065.42 148.315 1060.86 151.262 1056 153.619C1049.37 156.86 1042.22 158.481 1034.56 158.481C1019.97 158.481 1008.04 153.84 998.756 144.558C988.885 134.687 983.949 121.353 983.949 104.557C983.949 88.3503 988.664 75.3113 998.093 65.44C1007.38 55.274 1019.16 50.191 1033.45 50.191C1047.74 50.191 1059.02 54.3163 1067.27 62.567C1076.11 70.965 1080.53 83.12 1080.53 99.032C1066.82 99.474 1053.34 99.9897 1040.08 100.579C1026.82 101.021 1013.27 101.463 999.419 101.905C999.419 102.494 999.345 103.084 999.198 103.673C999.198 104.115 999.198 104.631 999.198 105.22C999.198 111.408 1000.01 117.007 1001.63 122.016C1003.4 127.025 1005.9 131.519 1009.14 135.497C1015.92 144.337 1025.42 148.757 1037.65 148.757C1044.13 148.757 1050.91 147.063 1057.98 143.674C1061.23 141.759 1064.39 139.549 1067.49 137.044C1070.73 134.392 1073.82 131.372 1076.77 127.983ZM999.861 93.507C1010.91 93.2123 1021.81 92.844 1032.57 92.402C1043.32 91.96 1054.23 91.5917 1065.28 91.297C1065.13 81.573 1062.11 73.7643 1056.22 67.871C1050.18 61.3883 1042.59 58.147 1033.45 58.147C1024.61 58.147 1016.88 61.683 1010.25 68.755C1004.06 75.2377 1000.6 83.4883 999.861 93.507ZM1170.52 60.136C1170.52 67.7973 1167.13 71.628 1160.35 71.628C1157.55 71.628 1154.46 70.3757 1151.07 67.871C1148.57 65.8083 1145.84 64.777 1142.89 64.777C1139.06 64.777 1134.28 66.987 1128.53 71.407C1123.96 74.943 1119.54 78.9947 1115.27 83.562V137.044C1115.27 141.169 1116.01 143.895 1117.48 145.221C1119.1 146.694 1123.15 147.431 1129.63 147.431V154.503H1087.64V147.431C1091.48 147.431 1094.42 147.136 1096.48 146.547C1098.55 145.958 1099.95 145.074 1100.68 143.895C1101.42 142.716 1101.79 140.875 1101.79 138.37V73.838C1101.79 70.8913 1101.27 68.9023 1100.24 67.871C1099.65 67.2817 1098.4 66.6187 1096.48 65.882C1094.42 65.44 1091.92 65.219 1088.97 65.219C1088.68 64.4823 1088.46 63.7457 1088.31 63.009C1088.16 62.2723 1087.94 61.5357 1087.64 60.799C1092.36 58.8837 1097 57.042 1101.57 55.274C1106.14 53.3587 1110.7 51.4433 1115.27 49.528V72.291C1118.81 68.9023 1122.34 65.8083 1125.88 63.009C1129.41 60.2097 1132.88 57.8523 1136.26 55.937C1143.63 51.6643 1150.78 49.528 1157.7 49.528C1166.25 49.528 1170.52 53.064 1170.52 60.136Z"/>
</svg>
