<svg width="1208" height="173" viewBox="0 0 1208 173" xmlns="http://www.w3.org/2000/svg" fill="context-fill">
<path d="M0.503684 170V152.283L65.2695 68.6274V68.1581H1.09033V45.6308H98.5911V64.7555L36.4065 146.886V147.473H99.6471V170H0.503684ZM165.183 172.464C152.746 172.464 142.03 169.844 133.034 164.603C124.117 159.362 117.273 151.931 112.502 142.31C107.73 132.689 105.345 121.308 105.345 108.167V108.05C105.345 94.9874 107.73 83.6064 112.502 73.9072C117.351 64.1297 124.117 56.5424 132.8 51.1453C141.56 45.7481 151.885 43.0496 163.775 43.0496C175.586 43.0496 185.793 45.6699 194.398 50.9106C203.08 56.0731 209.729 63.3475 214.344 72.7339C219.037 82.1203 221.383 93.071 221.383 105.586V114.972H119.776V95.4958H207.421L193.342 113.682V102.418C193.342 94.2834 192.09 87.5174 189.587 82.1203C187.084 76.7231 183.642 72.6948 179.262 70.0353C174.882 67.2976 169.837 65.9288 164.127 65.9288C158.338 65.9288 153.176 67.3367 148.639 70.1527C144.181 72.8903 140.661 76.9969 138.079 82.4722C135.576 87.9476 134.325 94.5963 134.325 102.418V113.682C134.325 121.269 135.576 127.761 138.079 133.159C140.661 138.477 144.298 142.584 148.991 145.478C153.684 148.294 159.277 149.702 165.769 149.702C170.619 149.702 174.882 148.959 178.558 147.473C182.234 145.908 185.246 143.914 187.593 141.489C190.017 139.064 191.699 136.444 192.638 133.628L192.872 132.807H220.093L219.858 134.097C218.841 138.869 216.964 143.562 214.226 148.177C211.489 152.713 207.812 156.82 203.197 160.496C198.582 164.173 193.107 167.106 186.771 169.296C180.435 171.408 173.239 172.464 165.183 172.464ZM232.83 170V45.6308H261.928V65.1075H262.632C265.839 58.3806 270.61 53.0226 276.946 49.0334C283.36 45.0442 291.26 43.0496 300.646 43.0496C314.335 43.0496 324.895 47.1952 332.325 55.4865C339.834 63.7778 343.589 75.1196 343.589 89.512V170H314.374V95.3785C314.374 86.5397 312.301 79.7346 308.156 74.9632C304.01 70.1135 297.791 67.6887 289.5 67.6887C283.947 67.6887 279.097 68.9794 274.951 71.5606C270.806 74.0636 267.599 77.5835 265.33 82.1203C263.062 86.5788 261.928 91.8195 261.928 97.8424V170H232.83ZM470.319 172.464C464.374 172.464 458.899 171.525 453.893 169.648C448.965 167.693 444.624 164.994 440.869 161.552C437.115 158.032 434.025 153.809 431.6 148.881H431.014V170H401.798V0.693627H431.014V66.9848H431.6C434.025 61.9787 437.154 57.7157 440.987 54.1958C444.819 50.5977 449.239 47.8601 454.245 45.9828C459.251 44.0273 464.687 43.0496 470.554 43.0496C480.957 43.0496 489.991 45.6699 497.657 50.9106C505.322 56.0731 511.267 63.504 515.491 73.2032C519.715 82.8242 521.827 94.3225 521.827 107.698V107.815C521.827 121.113 519.715 132.611 515.491 142.31C511.345 152.009 505.4 159.479 497.657 164.72C489.991 169.883 480.879 172.464 470.319 172.464ZM461.637 147.942C467.894 147.942 473.291 146.339 477.828 143.132C482.443 139.846 485.963 135.192 488.388 129.169C490.812 123.146 492.025 116.028 492.025 107.815V107.698C492.025 99.4068 490.773 92.2888 488.27 86.3441C485.845 80.3994 482.365 75.8236 477.828 72.6166C473.291 69.3313 467.894 67.6887 461.637 67.6887C455.614 67.6887 450.295 69.3313 445.68 72.6166C441.143 75.9018 437.545 80.5559 434.885 86.5788C432.226 92.5235 430.896 99.5632 430.896 107.698V107.815C430.896 115.95 432.187 123.029 434.768 129.052C437.428 135.075 441.065 139.729 445.68 143.014C450.295 146.299 455.614 147.942 461.637 147.942ZM533.391 170V45.6308H562.488V67.1021H563.192C565.069 59.593 568.472 53.7265 573.4 49.5027C578.406 45.2006 584.507 43.0496 591.703 43.0496C593.502 43.0496 595.223 43.1669 596.866 43.4015C598.508 43.6362 599.877 43.91 600.972 44.2228V70.622C599.799 70.1527 598.117 69.7616 595.927 69.4487C593.815 69.1358 591.508 68.9794 589.005 68.9794C583.529 68.9794 578.797 70.1135 574.808 72.3819C570.819 74.5721 567.768 77.8182 565.656 82.1203C563.544 86.4223 562.488 91.663 562.488 97.8424V170H533.391ZM659.116 172.464C646.914 172.464 636.315 169.883 627.32 164.72C618.324 159.479 611.324 152.049 606.318 142.428C601.39 132.728 598.926 121.191 598.926 107.815V107.581C598.926 94.2834 601.429 82.8242 606.435 73.2032C611.441 63.504 618.442 56.0731 627.437 50.9106C636.432 45.6699 646.953 43.0496 658.999 43.0496C671.123 43.0496 681.682 45.6699 690.678 50.9106C699.751 56.0731 706.791 63.4649 711.797 73.0859C716.803 82.7069 719.306 94.2052 719.306 107.581V107.815C719.306 121.269 716.803 132.846 711.797 142.545C706.869 152.166 699.908 159.558 690.912 164.72C681.917 169.883 671.318 172.464 659.116 172.464ZM659.233 148.881C665.413 148.881 670.771 147.277 675.307 144.07C679.844 140.863 683.325 136.209 685.75 130.108C688.253 123.929 689.504 116.498 689.504 107.815V107.581C689.504 98.9766 688.253 91.6239 685.75 85.5228C683.247 79.4217 679.688 74.7676 675.073 71.5606C670.536 68.3536 665.178 66.7501 658.999 66.7501C652.976 66.7501 647.657 68.3536 643.042 71.5606C638.505 74.7676 634.946 79.4217 632.365 85.5228C629.862 91.6239 628.61 98.9766 628.61 107.581V107.815C628.61 116.498 629.862 123.929 632.365 130.108C634.946 136.209 638.505 140.863 643.042 144.07C647.657 147.277 653.054 148.881 659.233 148.881ZM754.571 170L720.78 45.6308H750.112L771.114 141.137H771.701L795.988 45.6308H823.912L848.317 141.137H848.903L869.905 45.6308H898.768L865.212 170H834.472L809.95 79.0697H809.363L784.959 170H754.571ZM954.331 172.464C943.458 172.464 934.15 170.86 926.407 167.653C918.741 164.446 912.718 159.949 908.338 154.161C904.036 148.294 901.415 141.528 900.477 133.863L900.359 132.807H929.105L929.34 133.863C930.435 139.26 933.016 143.444 937.084 146.417C941.229 149.389 947.017 150.875 954.448 150.875C959.22 150.875 963.287 150.289 966.651 149.115C970.014 147.942 972.595 146.221 974.394 143.953C976.272 141.684 977.21 139.025 977.21 135.974V135.857C977.21 132.181 975.959 129.208 973.456 126.94C970.953 124.594 966.455 122.677 959.963 121.191L939.313 116.615C931.413 114.816 924.803 112.352 919.484 109.223C914.165 106.095 910.176 102.223 907.517 97.6077C904.857 92.9146 903.527 87.4783 903.527 81.2989V81.1816C903.527 73.5943 905.6 66.9456 909.746 61.2356C913.891 55.5256 919.719 51.0671 927.228 47.8601C934.737 44.6531 943.458 43.0496 953.392 43.0496C963.717 43.0496 972.556 44.7704 979.909 48.212C987.261 51.6537 992.932 56.2687 996.922 62.0569C1000.99 67.8452 1003.18 74.3374 1003.49 81.5336L1003.61 82.8242H976.389L976.272 81.8856C975.646 76.8795 973.377 72.773 969.466 69.566C965.556 66.2808 960.197 64.6382 953.392 64.6382C949.09 64.6382 945.336 65.2639 942.129 66.5154C939 67.767 936.575 69.5269 934.854 71.7953C933.212 74.0636 932.39 76.7231 932.39 79.7737V79.891C932.39 82.2376 932.977 84.3495 934.15 86.2268C935.324 88.1041 937.201 89.7467 939.782 91.1546C942.363 92.4844 945.805 93.6576 950.107 94.6745L970.757 99.2504C983.663 102.144 992.854 106.29 998.33 111.687C1003.8 117.006 1006.54 124.163 1006.54 133.159V133.276C1006.54 141.098 1004.31 147.981 999.855 153.926C995.396 159.792 989.217 164.368 981.317 167.653C973.495 170.86 964.5 172.464 954.331 172.464ZM1072.66 172.464C1060.23 172.464 1049.51 169.844 1040.52 164.603C1031.6 159.362 1024.76 151.931 1019.98 142.31C1015.21 132.689 1012.83 121.308 1012.83 108.167V108.05C1012.83 94.9874 1015.21 83.6064 1019.98 73.9072C1024.83 64.1297 1031.6 56.5424 1040.28 51.1453C1049.04 45.7481 1059.37 43.0496 1071.26 43.0496C1083.07 43.0496 1093.28 45.6699 1101.88 50.9106C1110.56 56.0731 1117.21 63.3475 1121.83 72.7339C1126.52 82.1203 1128.87 93.071 1128.87 105.586V114.972H1027.26V95.4958H1114.9L1100.82 113.682V102.418C1100.82 94.2834 1099.57 87.5174 1097.07 82.1203C1094.57 76.7231 1091.12 72.6948 1086.74 70.0353C1082.36 67.2976 1077.32 65.9288 1071.61 65.9288C1065.82 65.9288 1060.66 67.3367 1056.12 70.1527C1051.66 72.8903 1048.14 76.9969 1045.56 82.4722C1043.06 87.9476 1041.81 94.5963 1041.81 102.418V113.682C1041.81 121.269 1043.06 127.761 1045.56 133.159C1048.14 138.477 1051.78 142.584 1056.47 145.478C1061.17 148.294 1066.76 149.702 1073.25 149.702C1078.1 149.702 1082.36 148.959 1086.04 147.473C1089.72 145.908 1092.73 143.914 1095.07 141.489C1097.5 139.064 1099.18 136.444 1100.12 133.628L1100.35 132.807H1127.57L1127.34 134.097C1126.32 138.869 1124.45 143.562 1121.71 148.177C1118.97 152.713 1115.29 156.82 1110.68 160.496C1106.06 164.173 1100.59 167.106 1094.25 169.296C1087.92 171.408 1080.72 172.464 1072.66 172.464ZM1140.31 170V45.6308H1169.41V67.1021H1170.11C1171.99 59.593 1175.39 53.7265 1180.32 49.5027C1185.33 45.2006 1191.43 43.0496 1198.62 43.0496C1200.42 43.0496 1202.14 43.1669 1203.79 43.4015C1205.43 43.6362 1206.8 43.91 1207.89 44.2228V70.622C1206.72 70.1527 1205.04 69.7616 1202.85 69.4487C1200.74 69.1358 1198.43 68.9794 1195.93 68.9794C1190.45 68.9794 1185.72 70.1135 1181.73 72.3819C1177.74 74.5721 1174.69 77.8182 1172.58 82.1203C1170.47 86.4223 1169.41 91.663 1169.41 97.8424V170H1140.31Z"/>
</svg>
